<mxfile host="app.diagrams.net" modified="2020-12-08T02:40:55.749Z" agent="5.0 (Macintosh; Intel Mac OS X 10_15_7) AppleWebKit/605.1.15 (KHTML, like Gecko) Version/14.0.1 Safari/605.1.15" etag="eeS_3EWYKSZZ5vmlQtTd" version="13.10.4" type="github">
  <diagram id="oemc7NoDXvjCIODCk4Sk" name="Page-1">
    <mxGraphModel dx="812" dy="559" grid="1" gridSize="10" guides="1" tooltips="1" connect="1" arrows="1" fold="1" page="1" pageScale="1" pageWidth="1654" pageHeight="1169" math="0" shadow="0">
      <root>
        <mxCell id="0" />
        <mxCell id="1" parent="0" />
        <mxCell id="UOIlZKTl76xjUfxBEUO4-1" value="Actor" style="shape=umlActor;verticalLabelPosition=bottom;verticalAlign=top;html=1;outlineConnect=0;" vertex="1" parent="1">
          <mxGeometry x="160" y="100" width="30" height="60" as="geometry" />
        </mxCell>
        <mxCell id="UOIlZKTl76xjUfxBEUO4-2" value="Actor" style="shape=umlActor;verticalLabelPosition=bottom;verticalAlign=top;html=1;outlineConnect=0;" vertex="1" parent="1">
          <mxGeometry x="280" y="100" width="30" height="60" as="geometry" />
        </mxCell>
      </root>
    </mxGraphModel>
  </diagram>
</mxfile>
